<?xml version="1.0" standalone="no"?>
<svg xmlns="http://www.w3.org/2000/svg" xmlns:xlink="http://www.w3.org/1999/xlink" width="474pt" height="276pt" viewBox="0.00 0.00 474.02 276">
<g id="graph0" class="graph" transform="translate(2.617934665817814,173.83060112385937) scale(0.636921509849784)" data-name="CNC">

<polygon fill="white" stroke="none" points="-4,4 -4,-272 470.02,-272 470.02,4 -4,4"/>
<!-- in -->
<g id="node1" class="node" pointer-events="visible" data-name="init" data-comment="in">

<ellipse fill="none" stroke="black" cx="348.88" cy="-246" rx="27" ry="18"/>
<text text-anchor="middle" x="348.88" y="-241.8" font-family="Times,serif" font-size="14.00">init</text><ellipse fill="none" stroke="black" cx="348.88" cy="-246" rx="31" ry="22"/>

</g>
<!-- i -->
<g id="node2" class="node" pointer-events="visible" data-name="idle" data-comment="i">

<ellipse fill="none" stroke="black" cx="312.88" cy="-170" rx="27" ry="18"/>
<text text-anchor="middle" x="312.88" y="-165.8" font-family="Times,serif" font-size="14.00">idle</text>
</g>
<!-- lo -->
<g id="node3" class="node" pointer-events="visible" data-name="load_block" data-comment="lo">

<ellipse fill="none" stroke="black" cx="186.88" cy="-94" rx="53.89" ry="18"/>
<text text-anchor="middle" x="186.88" y="-89.8" font-family="Times,serif" font-size="14.00">load_block</text>
</g><g id="edge1" class="edge" data-name="init-&gt;idle" data-comment="lo">

<path fill="none" stroke="black" d="M339.05,-224.78C334.96,-216.38 330.17,-206.52 325.8,-197.56"/>
<polygon fill="black" stroke="black" points="328.96,-196.04 321.44,-188.58 322.66,-199.1 328.96,-196.04"/>
</g>
<!-- n -->
<g id="node4" class="node" pointer-events="visible" data-name="no_motion" data-comment="n">

<ellipse fill="none" stroke="black" cx="52.88" cy="-18" rx="52.77" ry="18"/>
<text text-anchor="middle" x="52.88" y="-13.8" font-family="Times,serif" font-size="14.00">no_motion</text>
</g>
<!-- a -->
<g id="node5" class="node" pointer-events="visible" data-name="rapid_motion" data-comment="a">

<ellipse fill="none" stroke="black" cx="186.88" cy="-18" rx="63.14" ry="18"/>
<text text-anchor="middle" x="186.88" y="-13.8" font-family="Times,serif" font-size="14.00">rapid_motion</text>
</g><g id="edge2" class="edge" data-name="init-&gt;stop" data-comment="a">

<path fill="none" stroke="black" d="M360.3,-225.08C375.1,-199.27 401.01,-154.08 418.06,-124.34"/>
<polygon fill="black" stroke="black" points="421,-126.25 422.94,-115.84 414.93,-122.77 421,-126.25"/>
</g>
<!-- itn -->
<!-- interp_motion -->
<!-- interp_motion -->
<!-- interp_motion -->
<g id="node6" class="node" pointer-events="visible" data-name="interp_motion">

<ellipse fill="none" stroke="black" cx="351.88" cy="-18" rx="65.51" ry="18"/>
<text text-anchor="middle" x="351.88" y="-13.8" font-family="Times,serif" font-size="14.00">interp_motion</text>
</g><g id="edge3" class="edge" data-name="idle-&gt;idle" data-comment="interp_motion">

<path fill="none" stroke="black" d="M332.31,-182.99C345.27,-186.65 357.88,-182.32 357.88,-170 357.88,-161.43 351.79,-156.73 343.71,-155.89"/>
<polygon fill="black" stroke="black" points="343.43,-152.4 333.82,-156.86 344.11,-159.37 343.43,-152.4"/>
</g>
<!-- s -->
<!-- stop -->
<!-- stop -->
<g id="node7" class="node" pointer-events="visible" data-name="stop">

<ellipse fill="none" stroke="black" cx="434.88" cy="-94" rx="27.25" ry="18"/>
<text text-anchor="middle" x="434.88" y="-89.8" font-family="Times,serif" font-size="14.00">stop</text><ellipse fill="none" stroke="black" cx="434.88" cy="-94" rx="31.27" ry="22"/>

</g>
<!-- gpt -->
<g id="edge13" class="edge" data-name="load_block-&gt;idle" data-comment="gpt">

<path fill="none" stroke="black" d="M216.84,-109.38C237.92,-120.88 265.72,-137.1 286.07,-149.72"/>
<polygon fill="black" stroke="black" points="284.07,-152.6 294.39,-154.96 287.8,-146.67 284.07,-152.6"/>
</g><g id="edge14" class="edge" data-name="idle-&gt;stop" data-comment="gpt">

<path fill="none" stroke="black" d="M332.49,-157.11C351.18,-145.77 379.69,-128.48 401.88,-115.02"/>
<polygon fill="black" stroke="black" points="403.55,-118.1 410.28,-109.92 399.92,-112.12 403.55,-118.1"/>
</g>
<g id="edge5" class="edge" data-name="load_block-&gt;no_motion" data-comment="gpt">

<path fill="none" stroke="black" d="M155.93,-78.91C134.68,-67.97 106.67,-52.64 85.15,-40.23"/>
<polygon fill="black" stroke="black" points="87.18,-37.36 76.77,-35.34 83.65,-43.4 87.18,-37.36"/>
</g>

<g id="edge10" class="edge" data-name="load_block-&gt;interp_motion" data-comment="gpt">

<path fill="none" stroke="black" d="M214.35,-78.2C238.92,-66.52 275.28,-50.15 304.5,-37.59"/>
<polygon fill="black" stroke="black" points="305.69,-40.88 313.51,-33.74 302.94,-34.44 305.69,-40.88"/>
</g>
<g id="edge6" class="edge" data-name="no_motion-&gt;load_block" data-comment="gpt">

<path fill="none" stroke="black" d="M83.51,-32.92C104.73,-43.83 132.78,-59.18 154.38,-71.64"/>
<polygon fill="black" stroke="black" points="152.39,-74.53 162.8,-76.54 155.92,-68.48 152.39,-74.53"/>
</g>
<!-- go_to_zero -->
<!-- go_to_zero -->
<!-- interp_motion&#45;&gt;i -->

<!-- interp_motion&#45;&gt;l -->




<g id="node8" class="node" pointer-events="visible" data-name="go_to_zero" data-comment="interp_motion-&gt;l">

<ellipse fill="none" stroke="black" cx="312.88" cy="-94" rx="54.46" ry="18"/>
<text text-anchor="middle" x="312.88" y="-89.8" font-family="Times,serif" font-size="14.00">go_to_zero</text>
</g><g id="edge4" class="edge" data-name="idle-&gt;load_block" data-comment="interp_motion-&gt;l">

<path fill="none" stroke="black" d="M291.1,-159.02C270.74,-148.23 240.41,-130.7 217.63,-116.71"/>
<polygon fill="black" stroke="black" points="219.7,-113.87 209.36,-111.56 216,-119.81 219.7,-113.87"/>
</g>
<!-- id -->
<g id="edge15" class="edge" data-name="idle-&gt;go_to_zero" data-comment="id">

<path fill="none" stroke="black" d="M307.12,-152.21C306.2,-143.72 305.92,-133.18 306.3,-123.48"/>
<polygon fill="black" stroke="black" points="309.77,-123.97 306.97,-113.75 302.79,-123.48 309.77,-123.97"/>
</g>
<!-- i -->
<g id="edge7" class="edge" data-name="load_block-&gt;rapid_motion" data-comment="i">

<path fill="none" stroke="black" d="M181.08,-75.84C180.2,-67.49 179.93,-57.23 180.29,-47.74"/>
<polygon fill="black" stroke="black" points="183.77,-48.05 180.96,-37.84 176.79,-47.57 183.77,-48.05"/>
</g>
<g id="edge8" class="edge" data-name="rapid_motion-&gt;rapid_motion" data-comment="i">

<path fill="none" stroke="black" d="M228.6,-31.83C249.4,-33.74 267.95,-29.13 267.95,-18 267.95,-8.95 255.71,-4.22 239.95,-3.78"/>
<polygon fill="black" stroke="black" points="239.98,-0.28 230.11,-4.12 240.22,-7.28 239.98,-0.28"/>
</g><g id="edge9" class="edge" data-name="rapid_motion-&gt;load_block" data-comment="i">

<path fill="none" stroke="black" d="M192.7,-36.33C193.58,-44.7 193.84,-54.96 193.48,-64.44"/>
<polygon fill="black" stroke="black" points="189.99,-64.11 192.79,-74.33 196.97,-64.59 189.99,-64.11"/>
</g>

<!-- r -->
<!-- interp_motion&#45;&gt;interp_motion -->
<!-- interp_motion&#45;&gt;interp_motion -->
<!-- interp_motion&#45;&gt;interp_motion -->
<g id="edge11" class="edge" data-name="interp_motion-&gt;interp_motion">

<path fill="none" stroke="black" d="M395.41,-31.87C416.72,-33.68 435.64,-29.06 435.64,-18 435.64,-8.93 422.91,-4.19 406.57,-3.78"/>
<polygon fill="black" stroke="black" points="406.8,-0.27 396.92,-4.09 407.03,-7.27 406.8,-0.27"/>
</g><g id="edge12" class="edge" data-name="interp_motion-&gt;load_block" data-comment="interp_motion-&gt;interp_motion">

<path fill="none" stroke="black" d="M322.96,-34.49C297.66,-46.48 260.69,-63.09 231.61,-75.55"/>
<polygon fill="black" stroke="black" points="230.52,-72.22 222.69,-79.35 233.26,-78.66 230.52,-72.22"/>
</g>
<!-- g -->
<g id="edge16" class="edge" data-name="go_to_zero-&gt;go_to_zero" data-comment="g">

<path fill="none" stroke="black" d="M349.43,-107.75C368.33,-109.86 385.36,-105.28 385.36,-94 385.36,-85.01 374.55,-80.27 360.59,-79.79"/>
<polygon fill="black" stroke="black" points="360.79,-76.28 350.94,-80.19 361.08,-83.27 360.79,-76.28"/>
</g><g id="edge17" class="edge" data-name="go_to_zero-&gt;idle" data-comment="g">

<path fill="none" stroke="black" d="M318.69,-112.24C319.6,-120.8 319.85,-131.35 319.45,-141.03"/>
<polygon fill="black" stroke="black" points="315.98,-140.47 318.75,-150.7 322.97,-140.98 315.98,-140.47"/>
</g>
<!-- i -->

</g>
</svg>